<?xml version="1.0" encoding="UTF-8" standalone="no"?>
<svg
   xmlns:dc="http://purl.org/dc/elements/1.1/"
   xmlns:cc="http://creativecommons.org/ns#"
   xmlns:rdf="http://www.w3.org/1999/02/22-rdf-syntax-ns#"
   xmlns:svg="http://www.w3.org/2000/svg"
   xmlns="http://www.w3.org/2000/svg"
   xmlns:sodipodi="http://sodipodi.sourceforge.net/DTD/sodipodi-0.dtd"
   xmlns:inkscape="http://www.inkscape.org/namespaces/inkscape"
   height="26.20665mm"
   id="svg3346"
   version="1.1"
   viewBox="0 0 92.851338 92.858206"
   width="26.204712mm"
   sodipodi:docname="Ninja jaune.svg"
   inkscape:version="0.92.4 (unknown)">
  <metadata
     id="metadata3777">
    <rdf:RDF>
      <cc:Work
         rdf:about="">
        <dc:format>image/svg+xml</dc:format>
        <dc:type
           rdf:resource="http://purl.org/dc/dcmitype/StillImage" />
      </cc:Work>
    </rdf:RDF>
  </metadata>
  <sodipodi:namedview
     pagecolor="#ffffff"
     bordercolor="#666666"
     borderopacity="1"
     objecttolerance="10"
     gridtolerance="10"
     guidetolerance="10"
     inkscape:pageopacity="0"
     inkscape:pageshadow="2"
     inkscape:window-width="1533"
     inkscape:window-height="845"
     id="namedview3775"
     showgrid="false"
     inkscape:zoom="4.8904599"
     inkscape:cx="46.628835"
     inkscape:cy="52.79204"
     inkscape:window-x="67"
     inkscape:window-y="27"
     inkscape:window-maximized="1"
     inkscape:current-layer="layer1" />
  <defs
     id="defs3348" />
  <g
     id="layer1"
     transform="matrix(0.12896018,0,0,0.12896018,104.55374,-13.318778)">
    <path
       d="m -450.74436,103.27822 a 360,360.22475 0 0 0 -360.00004,360.22359 360,360.22475 0 0 0 154.52153,295.62817 c 0.42784,-2.6459 0.84645,-5.29479 1.36133,-7.90818 0.73026,-3.70686 1.54775,-7.381 2.44922,-11.01878 0.57227,-2.30924 1.19043,-4.59687 1.83007,-6.87656 -0.49238,1.7998 -0.96348,3.60927 -1.41406,5.42739 -0.90147,3.63777 -1.71896,7.31192 -2.44922,11.01877 -0.51488,2.6134 -0.93349,5.26227 -1.36133,7.90817 a 360,360.22475 0 0 0 205.47852,64.59743 360,360.22475 0 0 0 224.78906,-79.02521 c 0.0707,0.32688 0.14224,0.6535 0.2168,0.97906 A 360,360.22475 0 0 0 -90.744326,463.50181 360,360.22475 0 0 0 -450.74436,103.27822 Z"
       id="path4178"
       style="fill:#ff0000;fill-rule:evenodd;stroke:none;stroke-width:1px;stroke-linecap:butt;stroke-linejoin:miter;stroke-opacity:1"
       inkscape:connector-curvature="0" />
    <ellipse
       cx="-450.74435"
       cy="448.30341"
       id="path3362"
       rx="168.57143"
       ry="162.85715"
       style="fill:#1a1a1a;fill-opacity:1;fill-rule:evenodd;stroke:none;stroke-width:1px;stroke-linecap:butt;stroke-linejoin:miter;stroke-opacity:1" />
    <path
       d="m -530.67755,815.78368 c -12.00501,-2.68354 -32.68104,-8.73134 -45.94673,-13.43956 -24.53258,-8.70704 -75.77772,-34.80916 -87.28411,-44.45886 -6.24607,-5.23819 -6.26133,-5.5471 -1.0978,-22.2133 18.12855,-58.51308 63.62983,-108.34295 122.00749,-133.61418 35.34389,-15.30011 60.36368,-19.84775 100.02446,-18.18065 76.03111,3.19591 141.37223,41.76341 181.42914,107.08825 10.85103,17.69589 24.77326,53.79281 24.51415,63.55913 -0.10791,4.0629 -6.04907,9.27676 -19.66818,17.26015 -44.20804,25.91434 -95.47457,43.49982 -145.19163,49.80371 -31.02123,3.93335 -98.91194,0.87337 -128.78679,-5.80468 z"
       id="path4180"
       style="fill:#1a1a1a;fill-opacity:1"
       inkscape:connector-curvature="0" />
    <rect
       height="36.95702"
       id="rect4182"
       ry="18.47851"
       style="fill:#1a1a1a;fill-opacity:1"
       transform="matrix(0.76356839,0.64572696,-0.65192184,0.75828617,0,0)"
       width="384.71426"
       x="-173.64436"
       y="851.85315" />
    <rect
       height="122.18182"
       id="rect4207"
       ry="45.758362"
       style="fill:#fbecd6;fill-opacity:1"
       width="247.27271"
       x="-574.38074"
       y="389.91382" />
    <ellipse
       cx="-498.29483"
       cy="452.45923"
       id="ellipse4213"
       rx="18.90909"
       ry="23.272726"
       style="fill:#1a1a1a;fill-opacity:1" />
    <ellipse
       cx="-405.20395"
       cy="452.45923"
       id="ellipse4247"
       rx="18.90909"
       ry="23.272726"
       style="fill:#1a1a1a;fill-opacity:1" />
    <path
       style="fill:#ffff00;fill-opacity:1;stroke-width:0.20447974"
       d="M 78.722712,88.223151 C 78.526207,87.175689 77.353653,84.179314 76.401624,82.29178 74.463688,78.44954 70.427587,73.872459 66.801825,71.405268 65.017999,70.191444 60.609046,67.896635 60.05293,67.892549 c -0.484629,-0.0036 -0.253923,-0.361912 0.40896,-0.635226 1.323393,-0.54565 4.175294,-2.633889 5.72968,-4.195424 8.535602,-8.574862 8.76291,-21.950962 0.521133,-30.666459 -3.363193,-3.5565 -7.579318,-5.913573 -12.436325,-6.952665 -2.088959,-0.446905 -6.967032,-0.503863 -8.997109,-0.105054 -4.934209,0.969328 -9.195923,3.227406 -12.591931,6.671864 -2.789388,2.829183 -4.720368,6.207215 -5.758904,10.074555 -0.472569,1.759765 -0.532958,2.366937 -0.532958,5.358558 0,3.002143 0.05948,3.595565 0.539774,5.385426 1.625685,6.05826 5.680416,11.203478 11.226619,14.245924 l 0.959549,0.526373 -1.879708,0.786174 c -1.03384,0.432395 -2.735909,1.28582 -3.782375,1.8965 -1.046466,0.610679 -1.970947,1.081341 -2.054404,1.04591 -0.08346,-0.03543 -2.978687,-2.45683 -6.433846,-5.38089 -3.45516,-2.924061 -6.596967,-5.44192 -6.981796,-5.595243 -0.590765,-0.235371 -0.835895,-0.235371 -1.574636,0 -1.497329,0.477068 -2.216294,2.122461 -1.558376,3.566433 0.186668,0.409692 10.171422,9.119231 12.204863,10.646106 0.26612,0.199825 0.164305,0.402089 -0.703756,1.39805 -2.945515,3.379512 -4.756755,6.448199 -6.127952,10.382263 l -0.837689,2.403391 -1.42094,-1.153723 C 17.189287,86.960844 15.527838,85.406685 14.278695,84.141706 2.8772958,72.595763 -2.0792589,56.067377 1.0351792,39.979187 1.6715648,36.691821 3.3776788,31.50992 4.8440092,28.4108 9.4340605,18.709632 17.463223,10.435063 27.006846,5.5705704 35.140147,1.4249353 43.48429,-0.32168718 52.559181,0.22187559 73.821484,1.4954333 92.01344,16.485258 97.335207,37.11647 c 0.377128,1.462031 0.835402,3.532388 1.018389,4.600795 0.447128,2.610668 0.628227,10.287891 0.309077,13.102608 -1.01061,8.913025 -4.293021,17.170029 -9.773254,24.584929 -1.51771,2.0535 -7.776846,8.524885 -8.245286,8.524885 -0.130653,0 -0.510938,0.23004 -0.845078,0.5112 -0.798085,0.671544 -0.91391,0.648113 -1.076343,-0.217736 z"
       id="path14"
       inkscape:connector-curvature="0"
       transform="matrix(7.2696859,0,0,7.2696859,-810.74437,103.27822)" />
  </g>
</svg>
